<mxfile host="app.diagrams.net" modified="2023-06-01T00:25:11.340Z" agent="Mozilla/5.0 (Windows NT 10.0; Win64; x64) AppleWebKit/537.36 (KHTML, like Gecko) Chrome/112.0.0.0 Safari/537.36 OPR/98.0.0.0" version="21.3.6" etag="L2sBEVk0iOnHfodZQYXQ" type="github">
  <diagram name="Page-1" id="Rnf5M9BNV6SgtQmckEPR">
    <mxGraphModel>
      <root>
        <mxCell id="0" />
        <mxCell id="1" parent="0" />
      </root>
    </mxGraphModel>
  </diagram>
</mxfile>
